<?xml version="1.0" standalone="no"?><!DOCTYPE svg PUBLIC "-//W3C//DTD SVG 1.1//EN" "http://www.w3.org/Graphics/SVG/1.1/DTD/svg11.dtd"><svg t="1622828853753" class="icon" viewBox="0 0 1024 1024" version="1.1" xmlns="http://www.w3.org/2000/svg" p-id="2756" xmlns:xlink="http://www.w3.org/1999/xlink" width="200" height="200"><defs><style type="text/css"></style></defs><path d="M758.6 344.6C742.4 226.7 641.4 135.9 519 135.9s-223.4 90.8-239.6 208.7h479.2z" fill="#FFFFFF" p-id="2757"></path><path d="M519.1 135.9c-12.2 0-24.1 0.9-35.8 2.6 104.7 16.6 187 100.3 201.4 205.7H279.6c0 0.1 0 0.2-0.1 0.4h479.1c-16.1-117.9-117.2-208.7-239.5-208.7zM226 344.9h582.2v89.6H226z" fill="#E5E5E5" p-id="2758"></path><path d="M295 580.1s41.4-11.8 92.2-15.2c8.4-0.6 17.1-0.9 25.9-0.9 61.8 0 158.5 35.8 212.3 35.8 10.1 0 20.3-0.6 30.3-1.6 43.3-4.4 81.9-16.1 81.9-16.1h-0.1l-47 327.8c-2.2 15.5-15.5 27-31.2 27H373.4c-15.7 0-28.9-11.5-31.1-27l-47.6-329.4" fill="#FF954D" p-id="2759"></path><path d="M655.6 598.2c-2.7 0.3-5.5 0.5-8.3 0.7L613.4 835c-2.2 15.5-15.5 27-31.2 27H335.4l6.9 47.9c2.2 15.5 15.5 27 31.1 27h285.8c15.7 0 28.9-11.5 31.2-27l47-327.7c-1.5 0.4-39.4 11.7-81.8 16zM737.4 582.1c0.1 0 0.1 0 0 0z" fill="#FF6545" p-id="2760"></path><path d="M656.2 960.2H370.4c-25.6 0-47.6-19.1-51.2-44.4l-31.8-221.3c-1.6-11.1 6.1-21.3 17.2-22.9 11.1-1.6 21.3 6.1 22.9 17.2L359.3 910c0.8 5.5 5.6 9.6 11.1 9.6h285.8c5.5 0 10.3-4.1 11.1-9.6L710 612.3c-15.2 3.4-34.8 7-55.5 9.1-11.4 1.2-22.3 1.7-32.3 1.7-28.3 0-64.9-8.5-103.6-17.5-38.8-9-79-18.3-108.6-18.3-7.9 0-16.1 0.3-24.5 0.8-48.1 3.2-87.5 14.3-87.9 14.4-1.2 0.3-2.5 0.6-3.7 0.7-10.7 1-20.4-6.6-21.9-17.3l-18-125.2h-31.7c-11.2 0-20.3-9.1-20.3-20.3V351c0-11.2 9.1-20.3 20.3-20.3h34.5c11.5-55.4 40.8-105.8 83.7-143.5 47.8-42 109.2-65.2 173-65.2s125.2 23.1 173 65.2c42.9 37.7 72.2 88.1 83.7 143.5h34.5c11.2 0 20.3 9.1 20.3 20.3v89.6c0 11.2-9.1 20.3-20.3 20.3H773l-2.3 15.9c-1.6 11.1-11.8 18.8-22.9 17.2-11.1-1.6-18.8-11.9-17.2-22.9l4.8-33.3c1.4-10 10-17.4 20-17.4h29v-49.1h-31.3c-10.1 0-18.7-7.5-20.1-17.5-14.9-109-109.3-191.2-219.5-191.2S308.9 244.8 294 353.8c-1.4 10-9.9 17.5-20.1 17.5h-31.3v49.1h29c10.1 0 18.6 7.4 20 17.4l17.3 120.5c17.7-3.8 44.2-8.5 73.9-10.5 9.3-0.6 18.4-0.9 27.2-0.9 34.3 0 76.7 9.8 117.8 19.4 36.5 8.5 70.9 16.5 94.5 16.5 8.7 0 18.2-0.5 28.3-1.5 37.2-3.8 71.1-13.3 77.2-15.1 3.1-1.1 6.4-1.4 9.7-0.9 9.4 1.4 16.5 9.1 17.2 18.6 0.1 1.9 0 3.8-0.4 5.6L707.4 916c-3.6 25.1-25.6 44.2-51.2 44.2z" fill="#333333" p-id="2761"></path><path d="M583.7 371.3c-4.2 0-8.4-1.3-12.1-4-9-6.7-10.8-19.4-4.1-28.3L746.4 98.7c3-4 7.3-6.7 12.1-7.7l129.2-26.7c11-2.3 21.7 4.8 23.9 15.7 2.3 11-4.8 21.7-15.7 23.9L774.3 129 599.9 363.1c-3.9 5.4-10 8.2-16.2 8.2z" fill="#333333" p-id="2762"></path><path d="M652.9 371.3H372c-11.2 0-20.3-9.1-20.3-20.3 0-11.2 9.1-20.3 20.3-20.3h280.9c11.2 0 20.3 9.1 20.3 20.3-0.1 11.2-9.1 20.3-20.3 20.3zM654.2 460.8H370.7c-11.2 0-20.3-9.1-20.3-20.3 0-11.2 9.1-20.3 20.3-20.3h283.5c11.2 0 20.3 9.1 20.3 20.3 0 11.3-9.1 20.3-20.3 20.3z" fill="#FFA73E" p-id="2763"></path></svg>