<?xml version="1.0" standalone="no"?><!DOCTYPE svg PUBLIC "-//W3C//DTD SVG 1.1//EN" "http://www.w3.org/Graphics/SVG/1.1/DTD/svg11.dtd"><svg t="1622789706171" class="icon" viewBox="0 0 1024 1024" version="1.1" xmlns="http://www.w3.org/2000/svg" p-id="6192" xmlns:xlink="http://www.w3.org/1999/xlink" width="200" height="200"><defs><style type="text/css"></style></defs><path d="M338.6 364.4c48 72 104.8 156.9 104.8 205.7 0 35-25.8 136.6 0 214.8 25.8 78.2-18.6 133.8 51.3 133.8s49-123.3 48.8-158.2c-0.2-34.9 15-177.8 34.7-201 19.7-23.1 193-149.9 193-177s22.1-51-27.1-51-27.8 15.7-59.1 51-89.2 67.3-106.8 67.3c-17.6 0-41.8-77.5-34.7-118.3 4.8-27.2 20.7-43.4 47.9-48.7 17.3-20.7 8.4-31-26.8-31s-67 4.3-95.5 12.9c8.7 31.2 13 60.1 13 86.6 0 39.8 18.2 120.4 8.4 130.9-9.8 10.5-11.2-11-47.2-69.2-24-38.8-50.3-74-78.9-105.7-49.2-9.8-57.8 9.1-25.8 57.1z" fill="#AFBF85" p-id="6193"></path><path d="M354.8 305.8c3 0.4 6.3 1 9.7 1.7 28.6 31.7 55 66.9 78.9 105.7 0.7 1.1 1.4 2.2 2 3.3 0.2 8.9-0.5 15.3-2.8 17.8-9.8 10.5-11.2-11-47.2-69.2-12.9-20.7-26.4-40.5-40.6-59.3z m151.8-49.5c18.2-2.9 37.6-4.4 58.1-4.4 35.1 0 44.1 10.3 26.8 31-27.2 5.3-43.2 21.5-47.9 48.7-3.1 17.9-0.2 42.8 5.5 65.1-8 3.3-14.6 5.2-18.8 5.2-17.6 0-41.8-77.5-34.7-118.3 1.9-10.8 5.6-19.9 11-27.3z m127 168.8c18.5-11.9 37.6-26.9 51.5-42.5 2.5-2.8 4.6-5.5 6.5-8 19-17.9 31.7-32.6 31.7-40v-1.3c5.1-1.1 11.8-1.6 20.9-1.6 49.2 0 27.1 23.8 27.1 51s-173.4 153.9-193 177c-19.7 23.1-34.9 166.1-34.7 201 0.2 34.9 21.1 158.2-48.8 158.2-40 0-42.6-18.2-42.3-48.3 63.1-6.5 43.4-124 43.2-157.9-0.2-34.9 15-177.8 34.7-201 9.7-11.6 57.5-48.8 103.2-86.6z" fill="#91A856" p-id="6194"></path><path d="M691.7 340.5c-0.1 0.1-0.2 0.4-0.3 0.6 0.1-0.2 0.1-0.3 0.2-0.5l0.1-0.1z m52.5-24.9c23 0 37.3 4.7 44.4 17.5 5.4 9.8 4.9 15.2 0.9 34.3-1.5 7.1-2.1 11.1-2.1 15.1 0 19.5-27.3 46.1-92.2 100.1-3.5 2.9-7.2 6-11 9.1-12.7 10.5-54.3 44.2-60.6 49.4-19 15.6-29.8 25-33 28.8-12.8 15.1-31.2 141.5-30.9 190.5 0 2.6 0.2 6 0.5 10.9 0.2 3 1 15.3 1 15.3 1.3 19.9 1.9 34.1 1.5 48.8-1.7 60.9-20.5 99.2-67.8 99.2-26 0-42.9-7.1-51.7-23.5-6.3-11.7-7-21-6.5-49 0.5-32.6-0.9-50-8.3-72.3-6.8-20.6-10.6-43.4-11.8-68.4-1.5-30.3 0.5-59.9 5.4-99.5 0.4-3.6 3.3-25.7 3.9-31.1 1.1-9.7 1.7-16.2 1.7-20.7 0-27.3-21.6-72.4-63.8-138.5-5.7-8.9-11.8-18.3-18.8-28.9-5.4-8.2-9.1-13.8-19.6-29.4-39.1-58.7-22.7-94.8 42.4-81.5l5.1 1.1 3.5 3.9c29.3 32.4 56.2 68.4 80.7 108 7.1 11.5 12.3 20.4 17.8 30.6-0.7-5.8-1.6-13-2.9-22.6-0.3-2.2-0.3-2.2-0.6-4.3-3.7-28.2-5.2-43.6-5.2-57.1 0-25-4.1-52.5-12.4-82.4l-4.2-15.1 15-4.5c30.1-9.1 63.5-13.6 100.1-13.6 46.6 0 67.1 23.7 39.1 57.3l-3.6 4.4-5.6 1.1c-20.7 4-31.6 15.1-35.2 35.7-2.8 16.2 0.3 42.7 7.6 67.1 3.4 11.3 7.4 21 11.3 27.6 1.1 1.8 2.1 3.3 2.9 4.4 7-1.7 21.5-8.3 37.1-17.7 21.3-12.9 41.5-28.8 54.9-43.8 5.2-5.8 8.9-11.2 11.9-16.9 1.8-3.4 7.9-17.1 6.7-14.6 8.6-18.5 21.5-24.8 52.4-24.8z m-408.7 5.6c0-0.1 0.1-0.2 0.2-0.4v0.2l-0.2 0.2z m1.8 7.4c2.4 6.9 7.3 16 14.6 27 10.5 15.7 14.2 21.3 19.7 29.6 7.1 10.7 13.2 20.2 19 29.3 45.7 71.6 68.8 119.8 68.8 155.7 0 6.1-0.6 13.6-1.9 24.5-0.7 5.7-3.5 27.9-4 31.3-4.7 37.9-6.6 66-5.2 94 1.1 22.3 4.4 42.4 10.2 60 8.8 26.6 10.5 47 9.9 82.9-0.3 21.5 0.2 28.7 2.7 33.4 2.2 4.1 8.1 6.6 23.5 6.6 23.5 0 34.6-22.4 35.8-68.1 0.4-13.5-0.1-26.9-1.4-45.8 0 0.1-0.8-12.3-1-15.5-0.3-5.4-0.5-9.4-0.5-12.7-0.3-57.3 18.7-188 38.5-211.4 5.1-6 16.2-15.6 37.1-32.8 6.4-5.2 47.9-38.9 60.5-49.3 3.8-3.1 7.4-6.1 10.9-9 25.5-21.2 45-38.2 59.1-52 7.9-7.7 13.8-14.1 17.7-19.2 1.8-2.3 3.1-4.2 3.8-5.6 0.1-6 1-11.6 2.9-20.5 1.9-8.7 2.2-11.8 2.4-12.2-0.3 0.2-4.7-1-16.3-1-19.7 0-20.8 0.5-23.6 6.8-0.5 1.1-2.6 6-2.9 6.6-1.5 3.3-2.8 6.2-4.4 9.1-4.2 7.8-9.3 15.3-16.2 23.1-31.3 35.2-93.4 72.7-118.8 72.7-32.2 0-58.9-88.7-50.5-137.1 5.5-31.1 23.8-51.8 53.1-59.9-3.5-0.5-9-1.1-16.2-1.1-27.6 0-53 2.8-76.1 8.2 6.3 26.7 9.5 51.8 9.5 75.3 0 11.5 1.5 26.1 5 52.9 0.3 2.1 0.3 2.1 0.6 4.3 8.4 64.4 9.1 73.4-1.4 84.6-5.5 5.9-12.2 9.3-20.7 7.1-10.1-2.6-11.5-4.8-23-27-11.3-21.9-17.5-33.2-28.9-51.7-22.5-36.3-47-69.5-73.6-99.4-8.1-1.4-14.4-1.7-18.6-1-1.8 0.3-2.2 0.3-2.1 0 0.3 0.5 0.5 3 2 7.3z m244.6-59.4c1 0.2 1.8 0.3 2.4 0.5l0.7-0.4-0.6-1.2c-0.7 0.2-1.4 0.3-2.2 0.5 0 0.2-0.1 0.4-0.3 0.6z" fill="#333333" p-id="6195"></path><path d="M381 400.7c-25.7 27.4-103.5 77.2-158.4 12-36.6-43.4-31.5-98 15.3-163.5 7.4-34.4 20.7-58.7 39.7-72.8s45.4-18.2 79.2-12.3c20.3-35.6 52.1-57.6 95.4-65.9s87.6 3.4 132.8 35.1c15.4-8 29.7-10 42.7-6 13 4 23 16.2 30 36.7 31.1-1.9 56.1 3.6 75 16.5 19 12.8 30.9 35.7 35.7 68.6 55.3 19 86.4 55.6 93.1 109.8 10.1 81.3-79.3 126.4-100.4 81.3-42.4-91-91.3-39.6-133.4-91-21.6-26.3-3.1-65.6-18.5-53.8-71.5 54.9-132.5 6.9-157 0s-24.5 28.2-56.9 36.5-66-21.1-66 10.1 77.5 31.3 51.7 58.7z" fill="#F6ECDB" p-id="6196"></path><path d="M378.2 403.7c-15.6-7-32.9-14.8-32.9-29.6 0-4.3 0.6-7.5 1.8-9.7 21.1 11.7 51.5 17.7 33.9 36.4-0.9 0.9-1.8 1.9-2.8 2.9zM218 407c-31.5-42.5-24.9-95 19.9-157.7 7.4-34.4 20.7-58.7 39.7-72.8s45.4-18.2 79.2-12.3c20.3-35.6 52.1-57.6 95.4-65.9s87.6 3.4 132.8 35.1c15.4-8 29.7-10 42.7-6 13 4 23 16.2 30 36.7 31.1-1.9 56.1 3.6 75 16.5 14.2 9.6 24.4 24.9 30.7 45.7-4.3-5.4-9.2-10-14.7-13.7-19-12.8-44-18.3-75-16.5-6.9-20.5-16.9-32.7-30-36.7-13-4-27.3-2-42.7 6-45.2-31.7-89.5-43.4-132.8-35.1-43.3 8.3-75.1 30.2-95.4 65.9-33.8-6-60.2-1.9-79.2 12.3s-32.2 38.4-39.7 72.8C219.8 329 207.8 370.9 218 407z m559.6-154.3c39.9 15.9 65.9 42 77.8 78.2-15.8-22.2-39.4-38.8-70.9-49.6-1.6-10.6-3.9-20.1-6.9-28.6zM633 355.3c-1.8-1.8-3.6-3.8-5.3-5.9-4.4-5.4-7.1-11.3-8.8-17.2 2.1-1.5 4.2-3 6.4-4.6 10.6-8.3 5 8.1 7.7 27.7z" fill="#F7F0E3" p-id="6197"></path><path d="M190.6 356.2c49.9 49.9 94.5 42.3 118.2 17.1 17.8-19 13.9-27.5 20.5-33.7-0.1 0.8-0.1 1.6-0.1 2.5 0 31.2 77.5 31.2 51.8 58.6-25.7 27.4-113.3 86.2-168.2 21.1-16.1-19.2-23.5-41-22.2-65.6z m115.7-192.5c1-0.2 2-0.4 3.1-0.6-0.2 0.3-0.4 0.7-0.6 1-0.8-0.1-1.7-0.2-2.5-0.4z m166-67.8c21.4 2.5 43 8 64.9 16.5 12.6 4.9 24.4 9.2 35.4 12.8-34-21.1-67.4-30.9-100.3-29.3z m119.2 34.5c13-5.4 25-6.4 36.2-3 11.6 3.6 20.8 13.7 27.6 30.4-8-7-15.6-14.6-22.9-22.6-16-0.8-29.7-2.5-40.9-4.8z m71 33.5c28.9-1 52.3 4.5 70.3 16.7 19 12.8 30.9 35.7 35.7 68.6 55.3 19 86.4 55.6 93.1 109.8 10.1 81.3-79.3 126.4-100.4 81.3-42.4-91-91.3-39.6-133.4-91-11.2-13.6-11.6-30.7-11.6-42.4 2.8 2 5.5 4.6 8.1 7.7C666.5 366 702.1 342 735.9 342s12.4-76.4-15.4-92.8c-11-34.9-7.3-49.4-35.7-68.6-7.8-5.2-15.2-10.7-22.3-16.7z m-60.4 136.8c-19.7 13.4-38.6 19.2-55.9 20.5 3-2 6-4.2 9.1-6.6 10.5-8.1 29.1-17.5 46.8-13.9z m-202.5 30c-1.4 0.5-2.8 0.9-4.3 1.3-13.6 3.5-27.5 0.3-39-2.3 21.8-5.2 25.4-4.1 43.3 1z" fill="#DEC7A2" p-id="6198"></path><path d="M361.1 388.8c-1.9-0.9-9-4.1-10-4.6-25.5-11.7-37.8-21.8-37.8-42.1 0-16.1 7.4-27.6 21.7-30.2 7.6-1.4 10-1 27.9 2.9 12.2 2.7 19.3 3.4 26.2 2.2 0.8-0.1 1.5-0.3 2.3-0.5 7.2-1.8 12.2-5.5 18.2-12.6 1.3-1.5 6.4-8 7.8-9.7 11-13 22.7-18.7 39.2-14 4.1 1.2 8.3 2.9 14.9 5.9 1.5 0.7 7.1 3.3 7.9 3.6 3.2 1.5 5.8 2.7 8.4 3.8 41.5 17.9 74.4 18 111.7-10.6 10.3-7.9 23.8-9.4 30.4 5.3 2.2 4.8 2.3 6.8 2.2 17.3-0.1 10.7 0.4 16.3 2.1 22.4 1.3 4.4 3.2 8.2 5.8 11.4 11.8 14.3 21.1 18.3 46.1 22.9 6.4 1.2 9.2 1.7 12.9 2.5 33.8 7.6 56.4 25.8 76.6 68.9 5.1 11 20.6 12.2 38.5 0.2 22.1-14.7 35.3-41.9 31.5-72.7-6-48-32.8-79.6-82.5-96.6l-9.2-3.2-1.4-9.6c-4.2-28.8-14.1-47.7-28.9-57.7-15.8-10.7-37.3-15.4-65.1-13.8l-12.2 0.7-3.9-11.6c-5.4-16.1-12.2-24.3-19.5-26.5-8.7-2.7-18.7-1.3-30.7 4.9l-8.6 4.4-7.9-5.6C534 117.2 494 106.6 455.2 114c-38.8 7.4-66.6 26.6-84.5 58.1l-5.6 9.8-11.1-2c-29.8-5.3-51.9-1.8-66.9 9.4-15.5 11.5-26.9 32.4-33.6 63.4l-0.7 3.2-1.9 2.7c-43 60.2-47.3 106.8-16.1 143.9 36.3 43 94.1 28.8 132.5-10.6-1.5-0.9-3.6-1.9-6.2-3.1z m3.3-33.7c0.8 0.4 8.1 3.7 10.2 4.6 11.5 5.4 18.1 9.5 22.9 16.2 8.1 11.4 5.7 24.6-4.8 35.7-49.7 53-129.7 74-182.3 11.5-41.5-49.2-36.4-110.6 12.6-180.4 8.3-36.2 23.2-62.8 45.1-79.1 20.7-15.4 47.8-20.8 80.7-16.8 22.8-34.3 56.6-55.8 100.5-64.2 45.4-8.7 91.3 2.4 137.4 32.6 15.8-6.3 31.2-7.5 45.8-3 15.8 4.8 27.6 17.1 36 35.7 29.1-0.1 53.7 6.3 73.2 19.6 21.1 14.3 34.6 37.9 41 70.1 55.5 21.9 87.7 62.3 94.8 119.6 5.4 43.2-13.6 82.1-45.5 103.3-32.3 21.5-70.4 18.7-85.3-13.3-15.9-34.1-30.4-45.8-54.6-51.2-3.1-0.7-5.6-1.2-11.6-2.3-31.8-5.8-47.4-12.5-65.1-34.1-5.6-6.8-9.4-14.4-11.8-22.9-1.6-5.5-2.5-10.4-2.9-16-41.2 24-80.9 21.4-125.4 2.2 1.2 0.5-23.9-10.9-27.3-11.9-2.2-0.6-2.3-0.6-6 3.9-1 1.2-6.1 7.7-7.8 9.7-9.9 11.8-20.1 19.3-34.7 23-1.5 0.4-3.1 0.7-4.7 1-12.1 2.1-22.6 1.1-38.5-2.4-4.6-1-7.7-1.7-10-2.1 1.6 2.4 7.1 6 18.1 11z m254.3-46.7c0.1-0.1 0.2-0.1 0.3-0.2l-0.1 0.1-0.2 0.1z m-18.6-8.6c0-0.1 0-0.1 0 0 0-0.1 0-0.1 0 0z" fill="#333333" p-id="6199"></path><path d="M450.2 211.9c-6.1 6.4-16.2 6.6-22.6 0.5-6.4-6.1-6.6-16.2-0.5-22.6 34.8-36.4 134.4-40.6 177.9 6.5 6 6.5 5.6 16.6-0.9 22.6s-16.6 5.6-22.6-0.9c-30.5-32.9-108.8-29.7-131.3-6.1zM694 310.7c-8.5 2.5-17.4-2.3-19.9-10.8s2.3-17.4 10.8-19.9c43.2-12.9 104.9 8 122.3 62.9 2.7 8.4-2 17.4-10.4 20.1s-17.4-2-20.1-10.4c-11.3-35.7-54.5-50.3-82.7-41.9zM308.1 295.2c-2.5 8.5-11.5 13.3-19.9 10.7-8.5-2.5-13.3-11.5-10.7-19.9 12.9-43.1 43.6-68.7 91.1-53.5 8.4 2.7 13 11.7 10.4 20.1-2.7 8.4-11.7 13-20.1 10.4-27-8.6-42.4 4.2-50.8 32.2z" fill="#DEC7A2" p-id="6200"></path></svg>