<?xml version="1.0" standalone="no"?><!DOCTYPE svg PUBLIC "-//W3C//DTD SVG 1.1//EN" "http://www.w3.org/Graphics/SVG/1.1/DTD/svg11.dtd"><svg t="1622789734951" class="icon" viewBox="0 0 1226 1024" version="1.1" xmlns="http://www.w3.org/2000/svg" p-id="1731" xmlns:xlink="http://www.w3.org/1999/xlink" width="239.453125" height="200"><defs><style type="text/css"></style></defs><path d="M872.868725 83.113774l-0.830659 1.062471-0.821001 1.004519c-12.672389 16.275133-18.989265 32.134937-18.989266 48.342458 0 14.56552 5.196452 29.304899 15.454133 44.575514 3.593086 5.186793 8.248643 10.025869 12.904201 14.324049-20.68922 21.51988-42.682382 46.401033-64.202262 78.825735-1.941425 2.89765-26.822579 39.746097-26.822579 39.746097l-17.327946 26.291343-2.540273 4.365793-11.078682 20.157984-20.988643 40.509145c-20.399455 43.271571-28.87991 74.401989-28.879911 106.652832v1.835179l0.1642 1.81586c1.545413 21.114209 8.615679 50.998637 47.106128 68.626008 20.283549 9.909963 43.213618 10.730963 63.139791 1.545413l7.369689-3.370933 5.833935-5.54417c23.413011-22.698257 29.778182-51.578167 34.849069-74.575848l6.896407-24.765248 2.298802-5.186793c13.087719-37.910919 34.665551-79.356971 53.992876-115.02704-0.463624 0.888613 17.46317-27.527674 26.716331-42.151147a77.502475 77.502475 0 0 0 31.893467 20.573314l1.709613 0.705095 1.593707 0.473283c27.112344 7.244125 49.636742 3.535133 70.915151-11.735482l2.240849-1.767567 1.951085-1.709613c18.689842-17.038181 28.821957-40.615392 28.821957-62.965932 0-4.71351-2.588567-8.663973-3.47718-13.029765a90.628829 90.628829 0 0 0 28.541851-27.769145l1.526096-2.298802 1.178377-2.414708c5.54417-10.914481 15.454133-30.599182 15.454133-53.896287 0-16.79671-5.138499-35.428599-20.872738-54.350253l-1.709613-2.182896-2.066991-1.951084c-31.420183-29.594664-82.892104-32.955938-118.736032-10.01621a73.812801 73.812801 0 0 0-21.10455-19.69436c-32.840032-20.399455-77.46384-13.445095-102.103522 14.971191" fill="#231916" p-id="1732"></path><path d="M633.802953 7.349889c-35.196787 11.976953-61.372224 29.594664-84.717623 57.373467 0 0.347718-24.050494 36.133694-24.050494 36.133694l-4.539651 8.432161-3.776604 8.60602s-3.361274 9.320774-5.428264 14.739379c-6.780501 16.333086-9.900304 32.019031-9.900303 47.106128 0 30.715088 11.551964 58.136515 22.75621 80.361489-7.659454-1.941425-50.757167-13.445095-50.757167-13.445095-18.216559-4.05671-42.740335-3.235709-54.649676-2.64652-0.482942 0-2.48232 0.115906-2.772085 0.115906h1.352236c-45.27095 0.115906-81.646114 15.859804-114.486145 49.578789l16.680804-11.136635c-18.738136 7.485595-30.183853 23.934588-43.0301 44.69142l-0.946566 1.468142-0.83066 1.709614c-13.020107 24.881153-20.331843 59.904081-20.863079 73.291224-0.647142 6.53903-0.946566 13.329189-0.946565 19.926172 0 34.308174 7.727066 67.44763 22.872116 98.983719 18.158606 35.969494 53.596864 57.84675 86.021565 74.64346 24.224353 11.619576 64.424415 17.279652 80.651255 19.221078 4.945322 0.473283 9.784398 0.589189 14.72972 0.705094-5.775982 6.896407-10.199727 12.324671-11.725823 14.150191-1.352237 2.06699-21.925551 32.955938-21.925551 32.955937l-1.719272 2.955603c-16.323428 26.822579-26.059531 72.692376-26.880532 95.680398v2.540273l0.115906 2.414709c1.883472 26.948144 8.132737 66.568676 38.558061 100.760944 51.172496 63.497167 113.365721 92.029359 170.729529 78.410405l1.236331-0.289765 15.80185-4.71351c52.766204-13.387142 95.979822-54.359911 121.566071-111.849285 6.1237 36.027447 22.930069 74.179836 35.486552 99.814379l1.767566 3.602745 2.240849 3.119803c15.328568 21.635786 57.895044 72.759988 121.566071 81.955196 43.271571 5.891888 70.451527-0.115906 108.294834-14.266096l-7.601502 2.173238c19.510842-3.535133 33.661033-14.855285 45.10675-23.693117l9.900303-7.611161c36.964353-30.299759 57.769479-68.384537 67.0323-88.320367 12.430918-29.237287 17.743276-55.180912 17.743276-85.190906v-0.821001c-1.120425-32.724126-13.087719-68.394195-32.019031-97.109905-12.788295-21.751692-38.142731-52.119062-77.937122-92.917972 0 0.125565-0.647142-0.531236-0.821001-0.647142h8.306597l1.303942-0.347718 60.126235-11.793435-0.173859-0.183518c10.315633-3.47718 45.811844-16.613193 65.969828-38.847826 31.545748-35.312693 35.544505-50.419108 36.9064-56.18543l0.115906-0.241471-1.593707 4.954981 13.387142-54.002535-0.531236-0.531235c2.530614-46.574892-26.996438-104.827313-67.264112-132.480552-25.470342-16.680804-76.401368-49.578789-138.546298-36.732541-39.552921 6.017453-72.450905 19.69436-109.598777 46.516939-46.275468 36.800153-71.446387 83.838669-82.476773 108.719823-0.647142 1.767566-2.945944 7.244125-2.945944 7.244124-4.539651 10.624716-10.083822 24.0022-12.672389 45.76355-0.289765 2.414708-0.289765 4.71351-0.289765 6.896407 0 5.418605 2.356755 8.837832 3.351615 13.561001a75.319579 75.319579 0 0 0-18.62223 35.959835c-22.167021-7.012313-43.455089-8.548067-63.023884-4.597604-0.772707-7.727066-1.535754-15.56038-4.423746-22.814164l-3.245367-8.074784-5.775982-6.432783a111.211802 111.211802 0 0 0-26.349297-20.988643c6.423124-1.236331 12.614436-1.120425 19.095513-3.651039 15.859804-5.428264 29.304899-16.922275 36.674588-32.366749 0.41533-0.589189 0.231812-1.178378 0.473283-1.709614 14.439955 1.825519 29.005475-1.419848 41.37844-10.972434 10.325292-6.780501 19.510842-14.971191 28.483898-26.948143 12.846248-16.323428 25.112965-32.35709 37.843307-54.70763 0.473283-0.878954 2.06699-3.651039 2.066991-3.651038l26.822578-57.489374-0.24147-1.352236c6.432783-22.466445 9.02135-31.893466 9.967915-53.538911l0.115906-2.530614-0.115906-2.530614c-0.115906-1.545413-2.414708-37.32173-10.25768-60.261458-6.075406-20.814785-23.519258-65.264734-41.030722-86.90052-12.382624-16.033663-53.587205-50.708872-72.57647-61.845506-48.342458-26.175437-91.729936-31.77756-130.519809-17.868841" fill="#231916" p-id="1733"></path><path d="M389.685612 362.592102C219.3038 399.682021 14.15019 525.31446 4.124322 913.966576l-0.57953 16.091616c-7.021971 49.057212 19.153466 71.040716 30.763382 78.178593 24.291965 15.212662 56.426902 12.797954 83.954575-6.181653 29.652617-20.283549 38.673967-46.169221 45.338562-65.21644 9.427021-27.06405 21.346021-60.898941 131.823751-116.620748 0.347718-0.115906 34.134315-8.895785 34.134315-8.895785 78.526311-18.873359 224.490593-53.896287 260.691899-165.436489 4.365792-13.271236 6.423124-26.832238 6.423124-40.209721 0-26.001578-7.900925-51.587826-23.229493-73.82246-9.60088-13.908719-21.394315-25.228871-34.250222-33.487173-2.530614-33.960456-12.315012-82.486433-48.100987-113.433333-18.747795-16.149569-51.356014-32.955938-101.408086-22.340881" fill="#231916" p-id="1734"></path><path d="M399.79841 409.234606C26.783944 490.05972 55.905325 897.585196 50.72819 936.075645c-5.54417 38.326249 20.573314 40.625051 40.673345 26.832237 50.583308-34.549645-8.364549-89.025462 183.170107-185.430273 32.550267-16.448992 234.342603-35.013269 270.485955-146.331318 17.453511-53.645158-24.533435-99.399049-52.640639-100.645038 0 0 9.542927-143.375715-92.628207-121.266647" fill="#74C3A5" p-id="1735"></path><path d="M237.037417 637.231356c-26.23339-10.624716-66.549358-28.30038-71.629904-8.615679-7.601501 30.367371 65.969828 6.432783 71.629904 8.615679M260.93337 674.649674c0.115906 9.204868-50.515696 69.447008-11.088341 67.573195 20.341502-0.888613 11.320152-43.870419 11.088341-67.573195M318.104001 576.313097s-62.202884-52.061109-76.05365-34.076362c-21.925551 28.87991 76.05365 34.076362 76.05365 34.076362M351.262774 616.967125s-50.873073 74.170178-30.888947 85.190905c31.835513 17.385899 30.888947-85.190906 30.888947-85.190905M400.204081 531.177371s-26.890191-70.103809-48.294165-64.269874c-11.494011 3.013556-23.866976 14.507567-5.833935 28.657757 28.71571 22.698257 33.960456 22.051115 54.1281 35.612117M434.512255 567.794007s4.423745 47.695317 0.231812 70.219714c-4.008416 22.698257-18.332465 15.212662-23.934588 11.551964-18.390418-12.324671 17.685323-74.991178 17.685323-74.991178l6.017453-6.7805" fill="#FEFEFE" p-id="1736"></path><path d="M890.312577 453.105025s41.977288-67.0323 72.277047-67.157865c30.241806-0.231812 122.087647 11.677529 114.254333 58.957516-7.900925 47.695317-105.117078 83.838669-114.022521 86.253377-8.596361 2.772085-78.236546 40.79891-78.236547 40.79891s52.544051 90.860641 73.638942 117.567314c21.230115 26.590767 33.902503 135.71626-15.444474 147.036413-49.878213 11.262199-112.660626-42.981806-112.660626-42.981807s0.589189-89.672604-18.216559-115.905994c-18.805748-26.416908-51.771344-65.322687-73.8128-43.561336-21.809645 21.568174-26.465202 51.230449-61.961413 88.542521-35.901882 36.974012-67.563536 92.802066-110.187965 74.411648-42.856241-18.100653-53.934923-111.366343-53.934923-111.366343l91.903795-105.715925s17.62737-27.06405-33.60308-34.317834c-51.346355-6.896407-58.184809 11.783776-115.316805-29.942381-57.006432-41.571617-78.28484-98.520095-78.284841-98.520096l113.896957-64.385779s95.564492 32.598561 125.04325 17.984746c29.536711-14.971191 27.653238-9.262821 8.789538-87.557319-18.931312-78.410405-56.484855-142.081431 29.29524-129.882326 85.838048 12.0832 138.951969 13.387142 141.724055 63.323308 2.772085 49.878213-47.453846 172.738567-47.453846 172.738567s-3.544792 77.830875 42.682382 86.852225c46.159562 8.837832 99.630861-23.181199 99.630861-23.181199" fill="#FFF000" p-id="1737"></path><path d="M1018.610854 128.838689c-14.913238 10.489492-18.515983 28.648098-14.971191 40.972769-18.873359 5.891888-31.893466 8.905444-47.637363 19.037559-2.89765-6.596983-5.370311-16.980228-6.95436-25.470342 8.364549-7.012313 16.448992-20.042078 14.266096-31.536089-1.419848-9.320774-1.062472-15.570039-13.860425-23.760729-13.261578-8.016831-31.835513-4.008416-40.673345 6.133359-11.909341 15.56038-11.378105 22.814163-1.651661 37.437636 3.245368 4.71351 12.91386 12.315012 18.274512 15.618332 4.539651 12.440577 3.419227 26.706673 5.833935 40.567098-28.416286 28.30038-53.229828 55.953619-76.285462 91.082794-9.784398 12.556483-33.419562 50.882731-42.914194 64.269874-9.02135 17.685323-22.118727 38.673967-31.072465 58.600139-16.564898 35.080881-24.639683 60.792694-24.697636 87.257896 1.178378 15.685945 5.312358 22.939728 20.331843 29.604323 6.906065 3.47718 15.096756 4.356134 22.823822 1.062471 21.635786-20.998303 18.863701-59.198987 32.009372-86.021565 14.266096-41.146628 36.896742-84.785235 57.247903-122.106965 13.49339-23.229493 23.461305-39.14725 34.897363-55.354771 11.378105-14.971191 20.042078-26.948144 33.661032-40.856863 8.306596 3.419227 16.033663 8.953738 26.948144 19.452889 0.289765 15.260956 1.999378 26.706673 20.631267 33.129797 15.676286 4.249886 22.930069 1.062472 30.531571-4.356134 14.449614-13.271236 15.328568-30.541229 10.972434-37.669448-6.075406-10.682669-16.980228-20.824444-25.827719-20.10969-5.891888-2.89765-16.613193-1.062472-23.876635 6.53903-5.718029-4.829416-12.788295-9.900304-18.390418-15.444474 10.489492-11.262199 23.470964-18.274512 36.375165-23.345399 7.659454 4.008416 14.198484 10.141774 23.17154 12.199106 15.97571 4.954981 31.77756 1.477801 43.802807-16.922275 9.195209-18.332465 17.327946-36.191647 0.57953-56.35929-16.439334-15.502427-46.806704-16.564898-63.545462-3.651038" fill="#FFF000" p-id="1738"></path><path d="M649.566168 52.137897c-26.523155 8.847491-45.976044 21.51988-64.076697 43.039759-11.030387 12.440577-14.971191 21.819303-22.408492 35.138834-2.994238 7.495254-5.660076 11.976953-7.53389 19.105171-16.574557 37.205824 2.173237 73.165659 18.264853 103.648936 1.709613 8.432161 4.655557 14.266096 7.36969 22.224974 1.593707 8.548067 1.709613 13.908719-2.124943 22.582351 0 0-3.351615 6.017453-7.012313 10.141775-16.149569 13.908719-42.440912 1.593707-57.305855-1.294284-17.269993-5.196452-36.017788-9.909963-52.582686-13.908719-13.976331-3.013556-43.387477-1.255648-43.387478-1.255648-33.429221-0.231812-57.779138 10.441198-81.829632 35.206445-5.486217 2.182896-14.623473 16.806369-20.10969 25.595907-9.784398 18.62223-15.386521 47.395893-15.618332 53.529252-3.187415 33.834891 2.598226 65.612452 17.385899 96.037775 11.976953 23.702776 41.571617 40.972769 65.032921 53.065628 14.439955 6.896407 46.458986 12.199106 64.492027 14.266096 17.154087 1.642002 38.026825 0.357377 54.359912-4.008416 0 0 27.585627-6.664595 34.964975 6.53903 5.119181 7.311736 1.757908 16.159227-4.249887 24.649342-0.888613 1.535754-8.258302 11.436058-10.373586 14.855285-13.087719 21.346021-24.533435 27.179956-40.38358 49.646401-9.909963 11.725823-17.096134 26.23339-20.10969 31.188371-10.663351 17.511464-19.336983 54.823535-19.926173 72.460564 2.009037 27.88505 8.731585 52.824157 27.06405 72.982141 28.947522 36.317212 75.754226 74.759366 123.80692 63.265355 4.298181-1.419848 15.029144-4.539651 15.029143-4.539651 47.811223-12.208765 81.423961-52.234968 98.037154-99.341096 4.897028-15.685945 10.557104-29.13104 12.913859-45.522079 4.71351-12.0832 6.481077-26.948144 11.146294-40.972769 3.47718-12.440577 13.029766-21.403974 19.153465-22.466446 9.794057 2.06699 17.453511 10.856528 20.515361 18.815407 0.888613 5.360652 7.137877 27.817439 8.258302 42.209099 0.946566 5.312358 5.949841 49.057212 10.615058 70.635045 4.356134 28.648098 18.390418 61.256318 32.183231 89.556698 17.279652 24.291965 49.520836 56.658714 89.672604 62.550602 33.902503 4.481698 52.998016 0 84.949435-11.783776 11.030387-2.192555 21.288068-12.324671 33.84455-21.403974 28.87991-23.58687 46.217515-54.833194 53.87697-71.398092 8.963397-21.172162 13.503048-41.339805 13.445095-66.211299-0.772707-22.988022-10.489492-50.525355-24.465823-71.513999-13.203625-23.470964-48.516317-61.140412-71.987282-85.190906-16.265475-17.395558-51.520214-43.28123-52.225309-55.36443-0.125565-6.95436 7.369689-9.794057 10.199728-12.266717 23.934588-13.203625 52.167356-14.15019 79.231405-13.90872 14.913238-1.835178 35.728023-5.9595 50.515696-9.909962 0 0 32.434361-10.788916 45.753892-25.412389 13.445095-15.212662 24.707294-30.425323 26.23339-36.317212 5.428264-14.507567 7.553207-25.528295 9.852009-40.38358 1.767566-31.77756-20.872738-73.117365-46.690798-90.860641-31.719607-20.747173-64.733498-37.785354-103.291559-29.362852-33.071844 4.839075-58.84161 15.869462-90.310087 38.442155-29.54637 23.58687-52.544051 57.837091-66.684582 89.498745-4.781122 12.208765-9.668492 20.698879-11.851388 39.388721-0.821001 8.490114 4.597604 12.199106 4.597605 12.199106 2.830038 3.187415 8.847491 3.419227 12.797953 3.776603 22.398833-12.91386 37.495589-41.919335 56.117819-58.957516 11.909341-13.329189 42.807947-29.246946 59.372846-31.072465 16.381381-1.883472 28.648098 9.320774 30.657135 15.859804 4.298181 9.137256 2.762426 18.332465-3.361274 29.95204-7.553207 12.440577-23.113587 25.702154-40.972769 34.781457-11.494011 4.723169-24.533435 11.976953-48.815741 19.336984-15.502427 4.723169-44.391996 8.557726-44.391996 8.557726-10.499151 2.945944-28.71571 6.53903-34.134315 10.663351-7.485595 6.249265-10.499151 19.105171-9.195209 30.193512 11.967294 34.076362 48.274847 64.492027 66.143688 91.913453l-0.705095 0.173859c3.419227 6.490736 23.045975 36.558682 23.876635 36.317212 16.323428 30.483276 6.95436 51.47192 0.531235 57.663232-6.548689 6.249265-16.63251 14.623473-31.961078 9.02135-12.315012-11.08834-18.62223-21.230115-22.456786-43.455089-8.847491-40.151768-26.291343-79.414924-55.712148-109.366965-8.374208-5.312358-15.270615-12.91386-24.765247-16.622851-17.975088-7.900925-49.578789-17.810888-73.397471-1.120425-13.908719 9.195209-32.308796 40.740957-40.084157 56.658714-23.403352 35.901882-31.603701 58.84161-70.33562 79.588783-14.623473 5.602123-27.817439-2.356755-34.308175-10.489493-3.003897-7.253783-1.893131-14.623473-2.009037-22.224974 2.656179-16.806369 10.846869-31.014512 20.988644-45.280609a444.837547 444.837547 0 0 1 45.280608-42.45057c15.56038-14.333708 33.776938-27.06405 42.440912-49.057212 3.129462-8.432161 2.598226-17.511464-0.647142-25.586248-24.050494-26.465202-63.487508-24.291965-94.91735-29.942382-25.286824-1.130083-48.216894-1.130083-69.031679-9.43668-16.864322-5.070887-41.561958-27.179956-41.735817-46.285127 4.414087-26.059531 19.221077-42.392617 45.744233-47.936787 16.922275-3.89251 34.665551 0 43.86076 2.182896l9.852009 4.307839c38.075119 14.623473 78.043369 42.035241 118.668421 25.760107 9.320774-2.887991 13.271236-14.497908 10.615057-21.403973-5.718029-25.460683-17.038181-45.92775-27.527674-69.804385a261.09757 261.09757 0 0 1-17.163746-52.061109c-1.526096-9.784398-10.962775-33.129797-0.473282-54.417865 7.021971-16.613193 13.744519-24.108447 20.283549-30.299758 13.976331-10.615057 28.184474-12.208765 45.811844-7.601502 11.725823 6.53903 24.939106 17.859182 31.120759 28.416287 12.324671 19.926172 14.208143 49.289024 14.449614 65.322686-1.294284 19.800607-4.897028 40.209721-16.159227 58.600139-6.307218 11.262199-11.25254 17.038181-13.261578 26.706673-2.356755 11.08834-3.003897 11.851388 4.539652 17.395558 4.829416 4.365792 9.552586 4.124322 13.029765 1.294283 6.606642-3.824898 12.266718-8.895785 19.163125-18.216558 12.372965-15.56038 23.461305-29.942382 34.665551-49.520836 7.012313-12.91386 17.385899-31.429842 23.635164-49.762307 6.606642-23.345399 8.132737-28.30038 8.847491-44.865279-0.83066-12.440577-3.718651-36.317212-7.900925-48.400411-5.54417-19.935831-21.635786-57.904703-32.782079-71.571952-8.548067-11.08834-44.27609-41.813087-59.894423-51.066249-28.30038-15.260956-60.725082-24.881153-90.609511-14.034284" fill="#F4A74F" p-id="1739"></path></svg>