<?xml version="1.0" standalone="no"?><!DOCTYPE svg PUBLIC "-//W3C//DTD SVG 1.1//EN" "http://www.w3.org/Graphics/SVG/1.1/DTD/svg11.dtd"><svg t="1622789643277" class="icon" viewBox="0 0 1024 1024" version="1.1" xmlns="http://www.w3.org/2000/svg" p-id="1319" xmlns:xlink="http://www.w3.org/1999/xlink" width="200" height="200"><defs><style type="text/css"></style></defs><path d="M800.828235 167.316437c59.288739 97.538151 46.742588 241.096067-21.693311 330.433613-49.263866 60.149244-111.030857 106.788571-180.25842 125.960605-10.033479 21.856807-7.563832 53.471731-2.521277 76.059967 44.229916-63.40195 111.822521-111.831126 192.752941-107.735126 86.876504 5.05116 163.667899 80.94763 196.229378 157.902521 0 66.64605-71.800471 115.075227-120.272672 148.436975-52.525176 31.666555-124.377277 26.778891-178.580437 4.19926-30.883496-15.919328-60.080403-38.344067-84.243361-68.547765h-5.885849c-7.512202 59.400605 23.319664 146.225479-41.700034 176.274286-33.404773 8.295261-71.852101 12.503126-102.683966-3.416202-54.297815-25.944202-19.172034-97.641412-37.604034-140.244974-54.20316 58.514286-126.00363 85.990185-206.150991 70.174117-76.78279-10.033479-147.688336-81.83395-172.746219-152.739496-4.990924-44.333176 34.196437-70.965782 60.089009-101.849277 63.444975-65.131563 170.224941-85.98158 252.893579-45.856269 24.266218 8.303866 42.543328 32.406588 65.914622 45.864874 3.355966-14.292975 0.843294-30.892101 1.677983-45.864874-102.726992-40.96-220.323496-134.514017-232.043563-253.01405-12.494521-116.813445 26.735866-222.810353 114.395429-304.644303C396.038454-11.470521 557.959529-17.253109 672.311933 41.149311c52.628437 27.475899 98.476101 75.165042 128.524907 126.167126" fill="#231916" p-id="1320"></path><path d="M658.956908 88.838454c10.816538 44.229916 6.668908 97.538151-12.503126 136.777143-75.104807-32.458218-184.457681-36.657479-250.423933 20.066958h-5.885849c-19.963697-48.429176-13.337815-108.518185-5.773983-160.200068 76.73116-46.802824 196.065882-42.706824 274.586891 3.355967M321.716706 127.208336c0.946555 127.741849 45.950924 244.555294 154.408874 320.503395 5.042555 2.418017 0 4.887664 0 8.407126-44.169681 30.676975-91.755563 52.525176-141.862723 67.49795-74.261513-30.892101-93.485176-111.831126-102.623731-184.474891-1.677983-82.668639 35.031126-150.166588 84.243361-211.942185h5.834219z" fill="#E73535" p-id="1321"></path><path d="M764.94521 203.122017c36.709109 68.547765 34.248067 171.920134-4.19926 238.62642C698.978958 555.309176 577.966252 600.322151 454.432269 592.026891c-27.518924-3.261311-58.40242-6.677513-74.261513-28.422454 174.475832-59.194084 327.998387-236.148168 336.345278-424.830924 24.214588 11.823328 36.769345 41.872134 48.429176 64.348504" fill="#E73535" p-id="1322"></path><path d="M618.891832 277.392134c-15.807462 50.064134-45.950924 94.397311-84.346622 134.410757-53.420101-5.877244-100.945748-61.655126-120.169412-108.56121 4.14763-24.214588 32.613109-30.892101 51.785143-40.030656 45.064605-15.859092 115.230118-23.371294 152.739496 14.189714" fill="#E73535" p-id="1323"></path><path d="M939.386622 746.539025c5.834218 40.813714-31.72679 63.393345-56.827698 91.815799-44.169681 28.310588-101.840672 39.075496-157.618554 28.310588-39.290622-14.232739-91.024134-39.187361-98.527731-86.773244-5.05116-57.670992 40.90837-99.328 85.921344-126.012235 41.751664-21.744941 107.717916-20.058353 146.905278 5.782588 33.404773 20.118588 60.132034 54.25479 80.147361 86.876504M540.413849 642.194286c4.199261 105.162218 8.346891 216.04679 4.19926 320.417344-12.546151 18.328739-37.552403 14.232739-55.984403 11.659832-23.371294-4.207866-17.433815-30.780235-18.277109-49.952269 4.990924-95.077109-9.241815-182.788303-4.199261-278.020302 23.319664-4.096 50.890218 0 74.261513-4.096M388.491832 728.072605c11.720067 23.474555 18.388975 55.098084 10.033479 81.88558-27.518924 51.681882-85.189916 74.270118-140.23637 80.198991-69.218958 6.574252-130.194286-22.682891-164.339092-83.615193-7.563832-16.702387-20.953277-40.02205-4.199261-56.621176 55.881143-57.670992 128.524908-110.308034 211.976605-81.988841 32.561479 11.814723 65.131563 30.203697 86.764639 60.140639" fill="#15AB4A" p-id="1324"></path></svg>