<?xml version="1.0" standalone="no"?><!DOCTYPE svg PUBLIC "-//W3C//DTD SVG 1.1//EN" "http://www.w3.org/Graphics/SVG/1.1/DTD/svg11.dtd"><svg t="1622789750671" class="icon" viewBox="0 0 1024 1024" version="1.1" xmlns="http://www.w3.org/2000/svg" p-id="2036" xmlns:xlink="http://www.w3.org/1999/xlink" width="200" height="200"><defs><style type="text/css"></style></defs><path d="M340.199558 709.421025c-40.296201 6.972462-89.828985 28.738894-119.447799 41.680402-13.631035-5.310392-28.924141-10.332623-44.628905-10.425246-30.966995-2.953648-59.047236 10.646513-71.201447 34.486673-10.836905 18.936281-14.382312 40.517467-10.363497 64.167236 5.99992 34.738814 27.57596 73.501588 64.259859 115.336362 49.779779 54.843176 101.823678 57.796824 136.72201 50.572221l1.502553-0.283015c0.061749 0 1.569447-0.411658 1.569447-0.411658 78.930332-25.594854 146.205588-75.158513 199.757186-147.373668l24.025407-32.315176-38.567236-11.999839c-34.39405-10.651658-73.367799-37.692462-89.767237-56.381749l-36.0201-49.913568c-0.535156-0.185246-17.840241 2.861025-17.840241 2.861025" fill="#231916" p-id="2037"></path><path d="M371.897246 774.452744c21.01001 24.689206 65.60804 53.994131 103.583518 65.741829-48.616844 65.330171-110.525106 112.820101-185.683618 137.102794-48.333829 9.895236-84.142955-13.636181-109.485669-41.495156-37.126432-42.339055-76.259698-103.557789-50.253186-147.342794 7.975879-15.987779 27.920724-21.107779 44.160644-19.378814 15.606995-0.535156 33.792 7.883256 47.613427 12.627618 29.649688-12.812864 83.29391-37.126432 123.307095-44.191517l26.757789 36.93604z" fill="#D8B77A" p-id="2038"></path><path d="M258.444221 938.966834v-0.092623 0.092623z m-71.798352-105.317628c-7.101106 4.898734-11.809447 12.406352-13.60016 21.987699-3.10802 16.23992 2.264121 36.591276 14.48008 54.369768 20.13009 29.58794 51.318352 42.277307 70.918432 28.960161 7.126834-4.775236 11.778573-12.406352 13.631035-22.111196 0.411658-2.294995 0.751276-4.55397 0.751277-6.946733 0.658653-14.948342-4.806111-32.006432-15.262231-47.392161-20.037467-29.526191-51.2-42.153809-70.918433-28.867538zM691.416121 719.959477c39.920563 9.262312 88.197789 33.550151 117.02416 48.025086 13.975799-4.584844 29.526191-8.799196 45.164061-8.042774 31.157387-1.317307 58.388583 13.728804 69.256362 38.227618 9.956985 19.60008 12.21596 41.243015 6.972462 64.54802-7.667136 34.424925-31.347779 71.865246-70.167156 111.754935-52.604784 52.265166-104.839075 52.357789-139.325749 43.311598l-1.440804-0.308744c-0.066894 0-1.507698-0.632925-1.507698-0.632925-77.453508-29.649688-142.027256-82.640402-191.745287-157.551919l-22.234693-33.704523 39.102392-9.920965c34.990955-8.799196 75.312884-33.606754 92.623115-51.575638l38.628985-47.932462c0.56603-0.092623 17.649849 3.802693 17.64985 3.802693" fill="#231916" p-id="2039"></path><path d="M656.317106 783.344563c-22.265568 23.526271-68.376442 50.32008-106.820181 60.117548 44.973668 67.846432 104.406834 118.480402 178.083377 146.68414 47.803819 12.627618 84.832482-9.046191 111.657165-35.618733 39.225889-40.39397 81.53407-99.286834 57.853427-144.389146-7.101106-16.584683-26.757789-22.646352-43.028582-21.766432-15.612141-1.44595-34.172784 6.092543-48.308101 10.20398-28.831518-14.44406-81.096683-41.680402-120.729085-50.850091l-28.713166 35.618734z" fill="#D8B77A" p-id="2040"></path><path d="M762.833688 877.135759c-10.836905 14.135317-17.083819 30.246593-17.778492 44.63405-0.092623 3.046271 0 5.99992 0.313889 8.917548 1.415075 9.67397 5.68603 17.526352 12.437227 22.677226 18.936281 14.356583 50.726593 3.334432 72.42613-24.967075 13.162774-17.186734 19.569206-37.255075 17.310231-53.680242-1.322452-9.704844-5.68603-17.464603-12.406351-22.553728-18.879678-14.48008-50.726593-3.391035-72.302634 24.972221zM690.160563 780.941508c26.665166-35.145327 37.342553-90.99192 37.342553-90.99192l48.400723 9.766593s36.339136 53.021588 96.580181 29.963578c46.296121-17.840241 52.167397-56.85001 48.992483-94.97986-1.852462-22.208965-8.886673-43.882774-30.148825-66.714371-38.757628-47.587698-99.74995-82.228744-154.464482-101.077548-21.57604-7.950151-58.043819-19.476583-58.043819-19.476583s13.286271-10.24 19.759598-17.02207c55.36804-52.486432 75.343759-140.149065 51.410975-213.774151 10.497286-23.402774 23.433648-42.966834 29.119678-69.323256 2.449367-14.819698 2.886754-28.991035 0.910794-44.001126-7.322372-45.328724-44.788422-88.547698-89.108583-98.566432-51.472724-13.852302-100.84599 5.778653-136.274331 45.20008-54.493266-5.655156-109.773829 1.193809-162.440362 7.193729C358.837387 31.003015 315.906573 13.667055 269.636181 22.584603c-21.200402 5.341266-38.001206 11.876342-53.13994 27.581106-12.720241 11.835176-29.304925 32.788583-36.874291 61.527477-6.596824 23.618894-4.178332 66.621749 24.370171 100.825407 11.150794 13.414915 32.006432 34.116181 32.006432 34.116181s1.821588 51.16398 4.898733 72.400402c3.550553 22.955095 22.744121 71.731457 49.594533 100.099859 17.994613 18.905407 51.853508 41.582633 51.853508 41.582633s-19.785327 5.403015-36.714774 10.744282c-69.915015 20.258734-129.276141 39.889688-171.548302 84.302472-19.003176 17.840241-33.704523 45.735236-35.052703 72.179136-1.101186 17.433729-3.293266 31.785166 23.680643 65.052301 59.047236 60.585809 118.377487-1.790714 118.377487-1.790713l78.456925-4.240081s1.852462 44.129769 28.234613 84.20985c27.828101 45.416201 64.47598 65.988824 104.962573 81.441447 33.107618 10.775156 84.38995 14.387457 126.137246 4.651739 45.915337-13.69793 84.014312-40.270472 111.276382-76.326593" fill="#231916" p-id="2041"></path><path d="M742.29194 85.213266c16.836824 31.697688 11.809447 75.575317-12.560724 101.489206l-9.14396 11.150794c24.030553 66.935638 9.329206 167.853668-49.435015 217.792965-79.83598 60.719598-204.712523 64.424523-293.913728 30.215719-60.616683-22.610332-105.497729-87.286995-112.876704-149.071759l-2.891899-68.247799c-31.594774-24.406191-60.205025-57.513809-58.795096-97.28-0.535156-32.412945 23.963658-60.050653 52.733427-72.585648 28.800643-14.073568 67.403899-8.418412 91.022794 7.91413 8.850653 5.464764 26.068261 22.991116 28.234613 26.824684 22.363337-4.270955 60.647558-12.529849 96.173669-14.732221 39.570653-3.483658 64.414231 1.888482 101.319397 1.728965 6.308663-10.332623 21.766432-23.840161 42.02002-34.394051 25.03397-13.286271 50.695719-15.138734 78.930331-5.969045 19.944844 7.728884 40.198432 24.689206 49.182875 45.169206M700.930573 639.089206c-8.670553-53.587618-28.455879-116.123658-64.635498-159.970412-68.973347 24.282693-162.975518 26.757789-239.739497 9.236583-29.644543 37.255075-42.807317 93.976442-51.410975 140.272563-4.492221 71.988744 10.332623 133.459618 80.839397 181.078191 52.954693 33.323739 136.500744 34.39405 191.997427 1.981105 69.225487-40.424844 87.817005-102.585246 82.949146-172.59803M180.476141 690.345809c22.486834 2.953648 35.618734-12.313729 49.810653-25.785246 36.997789-0.442533 67.151759-5.12 84.456844-10.80603 2.073729-47.994211 12.468101-121.619296 56.062714-173.539699-81.251055 20.325628-194.446794 47.901588-236.281568 116.370653-13.378894 29.119678-5.994774 56.633889 8.922693 78.179056 9.046191 10.368643 23.145487 15.36 37.028664 15.581266M656.466332 468.652382c42.086915 57.791678 68.469065 127.305327 72.050492 184.690492 13.66191 9.982714 34.296281 15.200482 57.570412 16.209046 11.181668 13.065005 34.35803 37.152161 56.911759 36.0201 13.91405 0.787296 27.22605-6.499055 37.183035-16.080402 16.553809-20.258734 13.759678-57.066131 1.790714-84.739859-36.339136-71.525628-146.04607-109.398191-225.506412-136.104523" fill="#D8B77A" p-id="2042"></path><path d="M567.707658 535.948221h0.092623-0.092623z m-50.253186 18.936282c-9.828342-9.041045-28.044221-21.545166-50.819216-17.521207-17.145568 3.077146-29.711437 10.111357-37.249929 21.231277-7.157709 10.677387-9.10794 24.277548-5.711759 40.517467 5.963899 29.088804 36.431759 61.409126 90.389869 95.926674 3.231518 2.073729 7.471598 1.945085 10.739136-0.092624 52.892945-36.153889 82.41399-69.261508 87.631759-98.535557a91.182312 91.182312 0 0 0 1.219537-10.049608c0.473407-11.840322-2.228101-21.956824-8.197145-30.277468-7.754613-10.867779-20.44398-17.624121-37.749066-20.135236-22.898492-3.396181-40.676985 9.67397-50.253186 18.936282zM521.159397 357.046673c-2.418492 8.670553-0.910794 17.685869 1.667216 19.790473 3.046271 3.262392 13.121608 6.344683 22.769849 3.797547 7.883256-3.015397 14.006673-9.231437 18.154131-9.015316 2.54199 0.097769 8.917548 4.903879 5.336121 9.488724-5.526513 6.843819-16.301668 12.812864-28.831518 13.03413-11.37206 0.313889-20.696121-2.356744-25.03397-6.504201-3.828422 4.682613-12.684221 8.449286-23.994533 9.67397-12.591598 1.415075-23.927638-3.169769-30.246592-9.262312-4.116583-4.116583 1.574593-9.67397 4.023959-10.116502 4.142312-0.782151 11.022151 4.682613 19.157548 6.627698 9.982714 1.322452 19.533186-3.015397 22.075176-6.535075 2.264121-2.511116 2.01198-11.397789-1.471678-19.816201-11.588181-1.852462-22.018573-8.696281-22.548583-17.433729-0.756422-10.77001 11.459538-20.325628 27.195175-21.323899 15.643015-0.977688 28.991035 6.874693 29.680563 17.649849 0.473407 8.356663-7.440724 16.461186-17.932864 19.944844M408.72008 323.584c9.704844-1.286432 16.270794-12.720241 14.510955-25.692623-1.631196-12.848884-10.960402-22.301588-20.732141-21.107779-9.63795 1.317307-16.203899 12.751116-14.572703 25.816121 1.69809 12.848884 10.996422 22.301588 20.793889 20.984281M601.983357 318.916824c9.766593-1.317307 16.363417-12.843739 14.665326-25.723497-1.69809-12.941508-10.991276-22.425085-20.726995-21.107779-9.802613 1.322452-16.301668 12.756261-14.701346 25.728643 1.790714 12.843739 11.022151 22.425085 20.763015 21.102633M325.292382 130.737528c1.13206-2.608884 1.440804-5.655156 0.56603-8.572784a13.337729 13.337729 0 0 0-5.403015-7.538493c-1.600322-1.44595 0.658653-5.907296-0.154372-8.387537-2.392764-6.972462-8.768322-11.310312-15.673889-9.015317-22.774995 8.572784-42.431678 31.126513-51.2 51.606513-3.576281 7.409849-2.130332 16.080402 5.027377 17.711598 6.437307 1.476824 11.217688 1.636342 15.138733-1.471679 1.440804 1.69809 3.360161 3.10802 5.68603 3.890171 5.089126 1.636342 8.073648-0.56603 12.967237-1.188663 1.322452 2.603739 4.054834 3.926191 7.131979 3.828422 2.073729-0.123497 6.380704-0.56603 13.070151-7.538493 5.495638-5.65001 11.773427-13.065005 14.819699-20.258733a13.23996 13.23996 0 0 0-1.97596-13.070151M633.495799 112.331256a13.512683 13.512683 0 0 1-1.507698-8.511035c0.535156-3.231518 2.356744-5.933025 4.615718-7.914131 1.476824-1.538573-1.193809-5.902151-0.627779-8.511035 1.543719-7.162854 7.569367-12.061588 14.665327-10.553889 23.495397 6.277789 45.323578 26.69604 56.129608 46.172623 4.332704 7.101106 3.797548 15.797387-3.015397 18.185005-6.313809 2.073729-11.181668 2.830151-15.421749 0-1.255558 1.852462-3.046271 3.45793-5.212623 4.492221-4.867859 2.228101-8.073648 0.283015-13.034131 0.190392-1.039437 2.727236-3.581427 4.363578-6.81809 4.456201-2.006834 0.221266-6.277789 0.097769-13.631035-6.061668-6.092543-5.053106-13.065005-11.90207-16.831679-18.78191a13.198794 13.198794 0 0 1 0.689528-13.157628" fill="#231916" p-id="2043"></path><path d="M517.850693 578.863598a9.365226 9.365226 0 0 0 7.667136-3.926191c0.154372-0.252141 17.238191-22.991116 39.313367-19.723578 11.93809 1.754693 20.294754 5.902151 24.848724 12.21596 3.267538 4.55397 4.806111 10.682533 4.492221 18.154131-0.128643 2.325869-0.344764 4.806111-0.849046 7.409849-4.018814 22.368482-30.400965 51.297769-74.185969 82.012623-44.664925-29.433568-71.798352-57.72993-76.444945-79.902874a44.726673 44.726673 0 0 1-1.13206-12.221106c0.123497-5.336121 1.543719-9.828342 3.987939-13.502392 4.368724-6.442452 12.596744-10.80603 24.46794-12.848884 22.049447-3.962211 39.79192 18.406271 39.982312 18.627537 1.852462 2.387618 4.744362 3.797548 7.852381 3.704925" fill="#E73535" p-id="2044"></path><path d="M201.439839 900.548824c-9.205709-13.533266-13.569286-29.114533-11.402934-40.548342 1.034291-5.310392 3.236663-9.14396 6.751196-11.402934 11.341186-7.728884 32.917226 2.922774 46.82613 23.397628 9.236583 13.636181 13.636181 29.119678 11.408081 40.615236-0.946814 5.212623-3.205789 9.138814-6.658573 11.433809-11.433809 7.759759-32.886352-3.077146-46.929046-23.495397M769.399638 939.599759c-3.360161-2.608884-5.433889-6.504201-6.154291-11.840322-1.574593-11.557307 3.67405-26.886432 13.502392-39.858814 15.076985-19.821347 37.126432-29.304925 48.148583-21.04603 3.329286 2.54199 5.341266 6.437307 6.061668 11.783719 1.543719 11.552161-3.643176 26.912161-13.471518 39.853668-15.138734 19.821347-37.095558 29.433568-48.086834 21.107779" fill="#F5C1D7" p-id="2045"></path></svg>