<?xml version="1.0" standalone="no"?><!DOCTYPE svg PUBLIC "-//W3C//DTD SVG 1.1//EN" "http://www.w3.org/Graphics/SVG/1.1/DTD/svg11.dtd"><svg t="1622789651405" class="icon" viewBox="0 0 1024 1024" version="1.1" xmlns="http://www.w3.org/2000/svg" p-id="1468" xmlns:xlink="http://www.w3.org/1999/xlink" width="200" height="200"><defs><style type="text/css"></style></defs><path d="M613.096727 633.254012c-80.647758 52.621188-95.759515 137.929697-71.102836 175.885964 24.81183 37.993503 109.015661 58.566594 189.700654 5.908169 59.925721-38.974061 75.074715-121.942885 78.75491-155.691442l2.947878-26.971539-25.792388-8.223031c-32.234279-10.457212-113.906036-30.347636-174.514424 9.091879" fill="#231916" p-id="1469"></path><path d="M719.443782 791.657503c-71.289018 46.483394-139.357091 27.083248-154.437818 4.052558-14.956606-23.067927-5.225503-93.15297 65.989042-139.518449 52.993552-34.549139 131.028558-14.205673 157.087806-5.833697-2.954085 27.046012-15.608242 106.824921-68.63903 141.299588M532.157285 994.831515l-38.94303-0.453042L486.555152 511.987588a268.207321 268.207321 0 0 0 18.978133-25.531733c5.945406 8.862255 12.499006 17.916897 19.809745 26.630206l6.820461 481.745454z" fill="#15AB4A" p-id="1470"></path><path d="M525.330618 513.092267l6.814255 481.745454-38.936825-0.453042-6.628072-482.390885c-7.993406 9.321503-16.632242 18.338909-26.022012 26.406788l6.777018 468.638254a12.809309 12.809309 0 0 0 12.765866 12.952049l64.698182 0.868848c12.045964-0.148945 13.069964-9.38977 13.1072-12.877575l-8.142351-286.080776 0.757139-104.634182 0.490279-77.544727a256.744727 256.744727 0 0 1-25.680679-26.624" fill="#231916" p-id="1471"></path><path d="M531.561503 553.493721c42.15777 34.921503 103.144727 36.857794 150.950012 4.5056 29.621527-19.815952 88.870788-93.531539 22.918982-181.192145 75.304339-18.220994 111.324315-92.997818 90.720194-158.571055-10.153115-31.744-58.938958-112.739297-165.385309-77.88606C637.095564 65.002279 576.636121 5.827491 508.040533 5.225503 439.283588 4.580073 376.558933 64.356848 382.727758 138.345503 310.607127 109.474909 238.219636 148.262788 216.44257 213.426424c-21.783273 65.039515 12.952048 138.68063 87.840582 160.197043-49.089939 58.454885-35.306279 140.585891 20.039369 181.421769 44.733285 33.072097 105.831952 32.538376 150.757624-3.258181l28.715443-30.763443 27.765915 32.463903z" fill="#231916" p-id="1472"></path><path d="M661.367467 528.632242c-39.507782 28.411345-94.735515 19.096048-123.035152-20.566884-9.433212-13.187879-22.956218-39.743612-12.573479-76.862061a123.748848 123.748848 0 0 0 87.728873-62.619152c38.030739 1.210182 59.472679 22.956218 68.521115 36.702643 39.811879 60.236024-1.284655 109.59903-20.641357 123.345454M650.748897 171.492073c74.509964-16.706715 103.715685 35.151127 110.685091 57.691539 14.813867 46.402715-9.017406 94.363152-57.424679 110.76577-18.332703 6.137794-54.625745 5.870933-76.936533-11.971491 6.628073-41.208242-11.400533-80.424339-32.420461-102.542739 11.245382-33.078303 40.339394-50.306327 56.102788-53.943079M507.717818 41.419248c48.754812 0.37857 87.468218 40.308364 87.505455 89.181091 0.074473 44.733285-30.608291 65.982836-34.964946 69.241019-29.925624-15.111758-67.34817-20.337261-107.954424-0.980558-4.282182-3.332655-34.133333-25.078691-33.754764-69.892655 0.533721-48.717576 40.382836-88.001939 89.168679-87.548897M306.393212 336.554667c-46.135855-15.372412-71.140073-65.536-55.606303-111.709091 15.378618-46.024145 65.529794-71.028364 111.628412-55.724218 15.837867 5.492364 43.411394 21.516412 55.23394 54.737454-21.7088 21.857745-41.3696 67.850861-34.207806 102.474473-32.38943 20.641358-61.477236 15.341382-77.048243 10.227588M469.283685 507.544048c-29.013333 39.129212-84.433455 47.426715-123.481988 18.332704-39.172655-28.752679-47.352242-84.402424-18.487855-123.376485 9.774545-13.262352 31.253721-33.680291 68.980364-35.461431a123.630933 123.630933 0 0 0 86.704873 63.872776c9.203588 40.302158-3.903612 63.376291-13.715394 76.632436" fill="#FEFEFE" p-id="1473"></path><path d="M418.474667 309.111467c0.422012-47.805285 39.662933-86.487661 87.6544-86.109091 47.997673 0.415806 86.673842 39.780848 86.25183 87.660606-0.415806 47.960436-39.7312 86.562133-87.728873 86.183563-48.028703-0.341333-86.593164-39.780848-86.171151-87.735078" fill="#FFF000" p-id="1474"></path></svg>