<?xml version="1.0" standalone="no"?><!DOCTYPE svg PUBLIC "-//W3C//DTD SVG 1.1//EN" "http://www.w3.org/Graphics/SVG/1.1/DTD/svg11.dtd"><svg t="1622789616824" class="icon" viewBox="0 0 1024 1024" version="1.1" xmlns="http://www.w3.org/2000/svg" p-id="2410" width="200" height="200" xmlns:xlink="http://www.w3.org/1999/xlink"><defs><style type="text/css"></style></defs><path d="M537.206154 998.421483l-37.107469-0.264952-0.737566-412.177902c6.516364-7.912727 12.45986-16.04028 17.830489-24.396979a314.131692 314.131692 0 0 0 19.140923 25.177511l0.873623 411.662322z" fill="#A1CC56" p-id="2411"></path><path d="M896.687441 734.458629c-14.25007-52.410182-83.438098-92.969175-156.342602-102.020475-17.744559 13.899189-59.964867 35.016503-119.227972 14.686881-24.654769 9.838993-45.113287 23.387301-59.929063 38.768783l0.179021 99.707525c31.557818 32.080559 88.14993 52.582042 154.502266 52.582042 97.988923 0 165.386741-36.448671 180.811189-103.724756" fill="#231916" p-id="2412"></path><path d="M536.332531 586.759161l0.873623 411.662322-37.107469-0.257791-0.737566-412.185063c-7.475916 8.95821-15.696559 17.701594-24.611804 25.528392l0.744727 398.93751a12.273678 12.273678 0 0 0 12.280839 12.323805l61.719273 0.214825c11.493147-0.121734 12.366769-8.951049 12.366769-12.273678l-0.522741-225.10814-0.136056-99.700364-0.17186-73.957147a247.707748 247.707748 0 0 1-24.697735-25.17751" fill="#231916" p-id="2413"></path><path d="M715.496727 657.107245c-88.679832-2.320112-146.023832 43.623832-153.327888 77.408671 7.304056 38.331972 65.915524 77.279776 153.671609 77.279776 82.872392 0 138.297287-28.106294 153.156028-76.928895-17.436643-40.866909-86.230825-75.969343-153.499749-77.766713" fill="#A1CC56" p-id="2414"></path><path d="M739.442573 421.737622c35.360224-10.74842 72.904503-28.235189 94.193679-66.087384 10.884476-18.575217 21.282014-51.443469 8.342377-93.148196-7.33986-29.323636-71.629874-127.849622-225.351608-79.112951C619.412587 115.769287 592.759944 43.738406 536.06042 14.67972c-34.350545-19.191049-76.048112-19.019189-114.76677 0.608672 0 0-77.759552 38.417902-73.64923 172.433007-23.473231-7.647776-48.249734-13.369287-73.427245-13.025567-50.397986-2.21986-112.418014 22.771469-135.626294 75.883413 0 0-23.953007 53.634685 14.16414 111.938238 0 0 34.830322 52.324252 130.506294 78.024503-25.872112 52.675133-31.027916 97.996084-15.904224 137.602685 14.114014 37.415385 47.641063 63.158601 91.873566 70.935273 0 0 89.811245 16.742042 157.645874-89.818406 29.073007 42.356364 73.914182 88.379077 145.286266 92.969175 0 0 71.68 4.633063 103.76056-55.38193 26.659804-49.875245 19.448839-109.009455-26.487944-175.104" fill="#231916" p-id="2415"></path><path d="M571.420643 148.379748c3.974266 28.24235-0.264951 56.692364 0.522742 84.927553 2.363077 4.024392 6.774154 7.432951 11.278321 7.08923 40.601958-12.853706 82.084699-30.20442 124.526993-26.79586 40.773818 3.007552 79.01986 23.731021 94.838154 60.888616 5.685706 19.448839 6.602294 40.387133-4.239217 58.962349-22.599608 40.215273-79.112951 48.693706-118.927216 59.184336-4.676028 2.792727-8.263608 7.776671-8.306574 13.419413 8.571524 18.489287 25.349371 29.237706 36.498797 45.628867 25.872112 38.861874 44.275469 84.540867 21.504 127.069091-11.457343 22.198601-38.897678 31.378797-62.199049 31.994629-68.887273-4.418238-107.126154-61.368392-137.982209-116.184615-3.630545-5.728671-12.066014-4.847888-17.257623-5.986462-13.118657 7.25393-17.92358 21.196084-23.702377 34.13572-23.158154 43.666797-67.125706 89.567776-122.328616 85.41449-25.306406-4.368112-48.779636-17.443804-58.575664-43.323077-16.992671-44.54042 9.144392-98.518825 32.832447-136.328056 2.663832-4.017231 0.873622-7.826797 0.916588-11.493147-4.024392-11.980084-18.883133-12.151944-28.893986-13.770294-46.853371-10.66965-95.582881-29.896503-125.171469-65.127832-13.899189-21.024224-18.840168-46.373594-10.533594-70.283636 15.073566-34.751552 60.358713-52.059301 95.718937-49.74635 35.746909-0.694601 75.43228 16.133371 109.525035 29.201902 5.069874-0.179021 10.626685-3.759441 13.333482-7.869762 0.830657-24.081902-4.898014-47.204252-4.110321-71.200224 2.234182-42.270434 13.548308-91.357986 50.133035-116.005594 24.167832-12.20207 51.271608-14.686881 75.045594-0.880783 35.016503 17.794685 50.569846 61.153566 55.55379 97.086657" fill="#F4A74F" p-id="2416"></path><path d="M469.815497 328.596587c-13.548308-29.631552-23.430266-148.959776 14.772811-150.270209 38.152951-1.181538 36.928448 125.622601 35.703944 140.438377 27.103776-14.822937 126.796979-44.368559 139.077818-11.0993 12.416895 33.219133-78.76207 60.272783-124.305007 47.991944 22.162797 12.280839 116.965147 86.144895 86.195021 112.024167-20.365427 17.135888-103.409678-30.72-118.18249-83.660083-3.67351 39.34165-68.314406 113.033846-96.069818 96.026853-22.162797-13.677203 28.321119-87.505455 57.866741-109.618126-51.665455 12.280839-125.393455-19.054993-120.631496-38.246042 6.158322-24.518713 88.636867-18.360392 125.572476-3.58042" fill="#FEFEFE" p-id="2417"></path><path d="M752.396531 793.105902c2.842853 4.582937 8.091748 7.08207 13.068532 4.855049a9.824671 9.824671 0 0 0 4.898014-13.032727c-5.069874-11.099301-23.516196-26.745734-47.426238-46.022714 39.692531 0.572867 78.239329 4.761958 105.600895 15.037763a10.025175 10.025175 0 0 0 12.717651-5.728672 10.132587 10.132587 0 0 0-5.857567-12.80358c-32.16649-11.980084-76.964699-16.219301-121.805874-16.305231 4.668867-4.726154 31.292867-32.474406 35.310098-35.274293 4.461203-3.150769 5.592615-9.309091 2.491972-13.727329a9.881958 9.881958 0 0 0-13.770294-2.491972c-5.63558 3.938462-46.115804 46.59558-53.276643 51.88744-49.961175 1.70428-96.420699 7.432951-121.419189 12.237874-0.307916 0.916587-0.522741 1.969231-0.744727 2.792728 1.002517 5.37779 3.100643 10.75558 6.122517 16.040279 26.001007-4.847888 73.821091-10.483469 123.775105-11.579076 3.014713 2.713958 52.231161 40.480224 60.315748 54.114461" fill="#231916" p-id="2418"></path></svg>